<?xml version="1.0" encoding="UTF-8"?>
<svg id="Capa_1" data-name="Capa 1" xmlns="http://www.w3.org/2000/svg" xmlns:xlink="http://www.w3.org/1999/xlink" viewBox="0 0 189.82 189.82">
  <defs>
    <style>
      .cls-1 {
        fill: #fff;
      }

      .cls-2 {
        fill: url(#Degradado_sin_nombre_27);
      }
    </style>
    <linearGradient id="Degradado_sin_nombre_27" data-name="Degradado sin nombre 27" x1="176.89" y1="47.05" x2="12.93" y2="142.76" gradientUnits="userSpaceOnUse">
      <stop offset=".15" stop-color="#2abaff"/>
      <stop offset="1" stop-color="#00647f"/>
    </linearGradient>
  </defs>
  <circle class="cls-2" cx="94.91" cy="94.91" r="94.91"/>
  <g>
    <path class="cls-1" d="M147.79,82.5c-.29,2.78-.73,5.59-1.32,8.42-6.8,32.76-30.99,55.44-54.03,50.66-23.03-4.79-36.19-35.22-29.38-67.98,5.02-24.17,19.51-42.86,36.01-49.07-1.11-.06-2.23-.08-3.36-.08-39.67,0-71.83,32.16-71.83,71.83s32.16,71.82,71.83,71.82c31.73,0,58.66-20.57,68.16-49.11l-16.07-36.49Z"/>
    <path class="cls-1" d="M81.89,42.49s.15,21.51,5.24,44.88c-15.32,10.46-19.4,20.62-19.4,20.62,4.38,14.42,11.07,20.35,11.07,20.35,4.88-9.66,10.7-15.53,14.81-18.8,3.15,8.18,7.15,15.79,12.23,21.89,0,0,13.82-2.92,19.57-14.94,0,0-21.48-41.01-25.6-90.2,0,0-8.31,3.15-17.93,16.2Z"/>
  </g>
</svg>